<?xml version="1.0" encoding="utf-8"?>
<!-- Generator: Adobe Illustrator 27.5.0, SVG Export Plug-In . SVG Version: 6.00 Build 0)  -->
<svg version="1.1" id="Layer_1" xmlns="http://www.w3.org/2000/svg" xmlns:xlink="http://www.w3.org/1999/xlink" x="0px" y="0px"
	 viewBox="0 0 123.9 153" style="enable-background:new 0 0 123.9 153;" xml:space="preserve">
<style type="text/css">
	.st0{display:none;}
	.st1{display:inline;}
	.st2{fill:#FFFFFF;}
	.st3{opacity:0;}
</style>
<g id="wh" class="st0">
	<g class="st1">
		<path class="st2" d="M97.9,39.8H120l-64.1,79.9c-1,1.2-2.5,2-4.1,2l0,0c-1.6,0-3.1-0.7-4.1-1.9l-65.3-80H4.8l46.7,57.3L97.9,39.8z
			"/>
	</g>
</g>
<g id="grey" class="st3">
	<g>
		<path class="st2" d="M83.2,77.3L17.3,23.5c-2.5-2-3.9-5-3.9-8.2v0c0-8.9,10.4-13.8,17.3-8.2L111,72.6c1.5,1.2,2.3,3.1,2.3,5l0,0
			c0,2-0.9,3.8-2.4,5l-80.4,64.5c-6.9,5.5-17.1,0.6-17.1-8.2v0c0-3.2,1.4-6.2,3.9-8.2L83.2,77.3z"/>
	</g>
</g>
</svg>
