<?xml version="1.0" encoding="utf-8"?>
<!-- Generator: Adobe Illustrator 27.5.0, SVG Export Plug-In . SVG Version: 6.00 Build 0)  -->
<svg version="1.1" id="Layer_1" xmlns="http://www.w3.org/2000/svg" xmlns:xlink="http://www.w3.org/1999/xlink" x="0px" y="0px"
	 viewBox="0 0 800 800" style="enable-background:new 0 0 800 800;" xml:space="preserve">
<style type="text/css">
	.st0{fill:#2B2B2F;}
</style>
<path class="st0" d="M483.1,400.3l183.1-183c23-23,23-60.1,0-83.1s-60.1-23-83.1,0L400,317.2L217,134.1c-23-23-60.1-23-83.1,0
	s-23,60.1,0,83.1l183.1,183l-183.1,183c-23,23-23,60.1,0,83.1c23,23,60.3,23,83.1,0l183.1-183l183.1,183c23,23,60.1,23,83.1,0
	c22.8-23,22.8-60.1-0.2-83.1L483.1,400.3z"/>
</svg>
