<?xml version="1.0" encoding="utf-8"?>
<!-- Generator: Adobe Illustrator 27.5.0, SVG Export Plug-In . SVG Version: 6.00 Build 0)  -->
<svg version="1.1" xmlns="http://www.w3.org/2000/svg" xmlns:xlink="http://www.w3.org/1999/xlink" x="0px" y="0px"
	 viewBox="0 0 329.8 153.7" style="enable-background:new 0 0 329.8 153.7;" xml:space="preserve">
<style type="text/css">
	.st0{opacity:0.1;}
	.st1{fill:#383F68;}
	.st2{fill:#FF5000;}
	.st3{fill:#FFFFFF;}
	.st4{fill:#BA3AC1;}
	.st5{display:none;}
	.st6{display:inline;}
	.st7{font-family:'Futura-Bold';}
	.st8{font-size:10px;}
	.st9{letter-spacing:1;}
	.st10{font-family:'Futura-Medium';}
	.st11{font-size:9px;}
</style>
<g id="Layer_1">
	<g class="st0">
		<path class="st1" d="M277.7,57.6l-8.2,18.2c-0.1,0.2,0.2,0.4,0.8,0.4l28.1,0c0.5,0,1.1-0.2,1.2-0.4l8.2-18.2
			c0.1-0.2-0.2-0.4-0.8-0.4l-28.1,0C278.3,57.2,277.8,57.4,277.7,57.6z"/>
		<path class="st1" d="M231.6,61.7l-20.2,45.1c-0.3,0.6,0.6,1.1,1.9,1.1l69.5-0.1c1.3,0,2.6-0.5,2.9-1.1L306,61.6
			c0.3-0.6-0.6-1.1-1.9-1.1l-69.5,0.1C233.2,60.7,231.9,61.1,231.6,61.7z"/>
	</g>
	<g>
		<g>
			<path class="st1" d="M22.1,95.6c-1-0.8-1.9-1.4-2.9-1.7c-1-0.4-1.9-0.6-2.8-0.6c-1.1,0-2.1,0.3-2.8,0.8c-0.7,0.5-1.1,1.2-1.1,2.1
				c0,0.6,0.2,1.1,0.5,1.5c0.4,0.4,0.8,0.7,1.4,1c0.6,0.3,1.2,0.5,2,0.7c0.7,0.2,1.5,0.4,2.2,0.7c2.9,1,5,2.2,6.3,3.8
				c1.3,1.6,2,3.7,2,6.3c0,1.7-0.3,3.3-0.9,4.7c-0.6,1.4-1.4,2.6-2.6,3.6c-1.1,1-2.5,1.8-4.1,2.3c-1.6,0.6-3.5,0.8-5.5,0.8
				c-4.3,0-8.2-1.3-11.9-3.8l3.8-7.1c1.3,1.2,2.6,2,3.9,2.6c1.3,0.6,2.6,0.9,3.8,0.9c1.4,0,2.5-0.3,3.2-1c0.7-0.7,1.1-1.4,1.1-2.2
				c0-0.5-0.1-0.9-0.3-1.3c-0.2-0.4-0.5-0.7-0.9-1c-0.4-0.3-1-0.6-1.6-0.9c-0.7-0.3-1.5-0.6-2.4-0.9c-1.1-0.4-2.2-0.8-3.3-1.2
				c-1.1-0.4-2.1-1-2.9-1.7c-0.9-0.7-1.5-1.6-2.1-2.7c-0.5-1.1-0.8-2.5-0.8-4.1c0-1.7,0.3-3.2,0.8-4.5c0.6-1.4,1.3-2.5,2.3-3.5
				c1-1,2.2-1.7,3.7-2.3c1.4-0.5,3.1-0.8,4.9-0.8c1.7,0,3.4,0.2,5.2,0.7c1.8,0.5,3.6,1.1,5.2,2L22.1,95.6z"/>
			<path class="st1" d="M31,103.9c0-2.5,0.5-4.8,1.4-7c0.9-2.2,2.2-4.1,3.9-5.7c1.6-1.6,3.6-2.9,5.9-3.8c2.3-0.9,4.8-1.4,7.6-1.4
				c2.7,0,5.2,0.5,7.5,1.4c2.3,0.9,4.3,2.2,5.9,3.8c1.7,1.6,3,3.5,3.9,5.7c0.9,2.2,1.4,4.5,1.4,7c0,2.5-0.5,4.8-1.4,7
				c-0.9,2.2-2.2,4.1-3.9,5.7c-1.7,1.6-3.6,2.9-5.9,3.8c-2.3,0.9-4.8,1.4-7.5,1.4c-2.7,0-5.3-0.5-7.6-1.4c-2.3-0.9-4.3-2.2-5.9-3.8
				c-1.6-1.6-2.9-3.5-3.9-5.7C31.4,108.7,31,106.4,31,103.9z M40.2,103.9c0,1.3,0.3,2.6,0.8,3.7c0.5,1.1,1.2,2.1,2.1,3
				c0.9,0.8,1.9,1.5,3,1.9c1.1,0.5,2.4,0.7,3.7,0.7c1.3,0,2.5-0.2,3.7-0.7c1.1-0.5,2.2-1.1,3-1.9c0.9-0.8,1.6-1.8,2.1-3
				c0.5-1.1,0.8-2.4,0.8-3.7c0-1.3-0.3-2.6-0.8-3.7c-0.5-1.1-1.2-2.1-2.1-3c-0.9-0.8-1.9-1.5-3-1.9c-1.2-0.5-2.4-0.7-3.7-0.7
				c-1.3,0-2.5,0.2-3.7,0.7c-1.2,0.5-2.2,1.1-3,1.9c-0.9,0.8-1.6,1.8-2.1,3C40.4,101.3,40.2,102.5,40.2,103.9z"/>
			<path class="st1" d="M102.1,120.8H91.1l-8.4-13v13H74V87h13.7c1.9,0,3.5,0.3,4.9,0.8c1.4,0.6,2.6,1.3,3.5,2.3
				c0.9,1,1.6,2.1,2.1,3.3c0.5,1.3,0.7,2.6,0.7,4c0,2.6-0.6,4.7-1.9,6.3c-1.2,1.6-3.1,2.7-5.5,3.2L102.1,120.8z M82.7,102.1h1.7
				c1.7,0,3.1-0.4,4-1.1c0.9-0.7,1.4-1.7,1.4-3.1c0-1.3-0.5-2.4-1.4-3.1c-0.9-0.7-2.3-1.1-4-1.1h-1.7V102.1z"/>
			<path class="st1" d="M118.6,94.4v26.4h-8.8V94.4h-7.2V87h23.2v7.4H118.6z"/>
			<path class="st1" d="M149,94.4h-10.4v5.6h9.9v7.4h-9.9v5.8H149v7.4h-19.2V87H149V94.4z"/>
			<path class="st1" d="M155.3,87h13c2.3,0,4.5,0.5,6.5,1.4c2,0.9,3.8,2.2,5.3,3.7c1.5,1.5,2.7,3.3,3.6,5.4c0.9,2,1.3,4.2,1.3,6.4
				c0,2.2-0.4,4.3-1.3,6.4c-0.9,2-2,3.8-3.5,5.4c-1.5,1.6-3.3,2.8-5.3,3.7c-2,0.9-4.2,1.4-6.5,1.4h-13V87z M164.1,113.3h2
				c1.5,0,2.9-0.2,4.1-0.7c1.2-0.5,2.2-1.1,3-2c0.8-0.8,1.4-1.8,1.9-3c0.4-1.1,0.7-2.4,0.7-3.8c0-1.3-0.2-2.6-0.7-3.8
				c-0.4-1.2-1.1-2.2-1.9-3c-0.8-0.8-1.8-1.5-3-2c-1.2-0.5-2.5-0.7-4-0.7h-2V113.3z"/>
		</g>
	</g>
	<g>
		<path class="st2" d="M84.5,56.1c-0.9,0.3-1.9,0.1-2.3,1.2c-1,3.2-1.2,10.8,3.6,8.9l1.2-0.8c3.6-2.3,6.3-5.8,7.7-9.7l0.5-1.5
			c0.1-0.2,0.2-0.5,0.4-0.7c1.2-4.2,2.8-8.9,4.6-13.2c3.1-6.5,9.4-25.1,18-25.5c0.2,0,0.5,0,0.7,0.1c8.9,4.4-4.5,23.9-7.9,29.9
			c0,0,0,0.1,0,0.1c-5.8,8.8-12.8,17.3-11.2,28.3c0.9,9.1,4.6-3,6-5.7c2.9-6.8,5.8-13.7,8.4-20.6c2-5.5,12.1-36.5,20.9-32.9
			c1.3,0.5,2.2,1.8,2.4,3.2c0.1,0.9,0.2,2,0,3.3c-2,11.3-9.9,21-15.9,30.7c0,0-0.1,0.1-0.1,0.1c-3.9,4.3-4,9.8-4.8,15.2
			c-0.1,1.1,0.7,7.4,2.1,5.1c3.3-5.1,5.3-10.9,7.9-16.4c0,0,0-0.1,0-0.1c0.5-1.4,1.1-2.8,1.8-4.2c0.7-1.3,3-0.5,2.5,0.9
			c-3.2,5.5-7.2,23.3-14.1,23.8c-0.2,0-0.4,0-0.5-0.1c-3.5-1-4.8-4-5.4-7.1c-0.3-1.2-2-1.4-2.4-0.2c-1.6,4-2.6,8.9-5.9,11.3
			c-0.7,0.5-1.6,0.7-2.3,0.8c-0.3,0-0.5,0-0.6,0C92.4,80,93,72,93.2,66.2c0-1.1-1.5-1.7-2.2-0.8l-1.7,1.3c-1.6,1.3-3.6,2.1-5.7,2.1
			c-14.4,0.4-6.9-25.5,3.5-29.1c0,0,7.2-2.4,7.9,2.4c0.3,2.2-0.2,4.3-0.9,6.2c-1.3,3.1-4.5,6-7.1,7.1 M117.3,24.7
			c0.5-1.4-1.6-2.3-2.3-1c-3.3,5.7-7.7,17.1-8.1,18.7c0.2,0.9,0.7-0.1,0.8-0.5C111,36.4,115.3,30.9,117.3,24.7z M134.4,19.4
			c-1.4-3.3-10.4,18.2-10.5,20.2c0.3,1,1.5-1.8,1.8-2.1C129,31.7,133.6,26.1,134.4,19.4z M84.5,52.2c0.1,1.1,1.4-0.4,1.9-0.8
			c0.1-0.1,0.2-0.1,0.2-0.2C95.2,40.4,87.4,44,84.5,52.2z"/>
		<path class="st2" d="M24,53.3c1.8,0.3,3.8-0.2,5-1.9c-5.1-0.9-4.3-2.8-2.8-6.9C29,38.4,33.5,33,38.7,28.6c0.3-0.4,0.9-0.1,0.6,0.4
			c-1.1,2.7-2.6,5.3-3.5,8.1c-4.3,11.2-8.3,23.1-7.6,35.2c0.4,6.4,6.5,11,11.4,4.9c3.9-5.6,6.9-11.6,10-17.5
			c0.8-1.7,3.2-7.7,2.6-2.1c-1.2,5.8,0.7,16.7,9.1,12.2c7.2-5.2,9.9-14.2,13.8-21.6c1.2-3.5,13.6-25.8,8.4-30.1
			c-0.5-0.4-1.1-0.5-1.7-0.5c-2.1,0.1-3.8,1.5-4.4,3.4c-1.3,4.2-2.7,8.4-4.2,12.5c-3.6,9.4-7.5,18.7-13,27.3c-2.5,4-5.3,6.9-4.1-0.2
			c0.3-9.1,2-18.1,4.6-26.9c1.5-2.5-0.3-4.6-2.6-2.2c-1.3,1.7-2.1,3.7-2.8,5.7c-4.7,10.1-8.9,20.6-14.8,30.3c-2.3,3.8-5.2,9-4.5,0.8
			c1.2-9.9,4.2-19.4,7.6-28.8c2.4-8.8,16.7-22.3-2.4-18.8c-1.2,0.2-3.3,1-3.3,1C31.6,24.2,24.4,32.8,21.2,40
			c-1.1,2.5-1.7,5.2-1.7,7.9v0C19.5,50.4,21.3,52.8,24,53.3z"/>
	</g>
	<g>
		<g>
			<path class="st2" d="M276.7,35.6l-8.2,18.2c-0.1,0.2,0.2,0.4,0.8,0.4l28.1,0c0.5,0,1.1-0.2,1.2-0.4l8.2-18.2
				c0.1-0.2-0.2-0.4-0.8-0.4l-28.1,0C277.3,35.2,276.8,35.4,276.7,35.6z"/>
			<path class="st2" d="M230.6,39.7l-20.2,45.1c-0.3,0.6,0.6,1.1,1.9,1.1l69.5-0.1c1.3,0,2.6-0.5,2.9-1.1L305,39.6
				c0.3-0.6-0.6-1.1-1.9-1.1l-69.5,0.1C232.2,38.7,230.9,39.1,230.6,39.7z"/>
		</g>
		<path class="st3" d="M270.6,58l-1.9,4.3c0,0.1,0.1,0.1,0.2,0.1l6.6,0c0.1,0,0.3,0,0.3-0.1l1.9-4.3c0-0.1-0.1-0.1-0.2-0.1l-6.6,0
			C270.7,57.9,270.6,58,270.6,58z"/>
		<path class="st2" d="M232.4,102.5l-2.4,5.4c0,0.1,0.1,0.1,0.2,0.1l8.3,0c0.2,0,0.3-0.1,0.3-0.1l2.4-5.4c0-0.1-0.1-0.1-0.2-0.1
			l-8.3,0C232.6,102.4,232.4,102.5,232.4,102.5z"/>
		<path class="st2" d="M242.1,112.5l-2.7,6.1c0,0.1,0.1,0.1,0.3,0.1l9.4,0c0.2,0,0.4-0.1,0.4-0.1l2.7-6.1c0-0.1-0.1-0.1-0.3-0.1
			l-9.4,0C242.3,112.3,242.1,112.4,242.1,112.5z"/>
		<path class="st2" d="M222.8,92.9l-2.2,5c0,0.1,0.1,0.1,0.2,0.1l7.7,0c0.1,0,0.3-0.1,0.3-0.1l2.2-5c0-0.1-0.1-0.1-0.2-0.1l-7.7,0
			C223,92.8,222.8,92.8,222.8,92.9z"/>
		<path class="st2" d="M268.9,98.3l-2.4,5.4c0,0.1,0.1,0.1,0.2,0.1l8.3,0c0.2,0,0.3-0.1,0.3-0.1l2.4-5.4c0-0.1-0.1-0.1-0.2-0.1
			l-8.3,0C269.1,98.2,269,98.2,268.9,98.3z"/>
		<path class="st2" d="M253.6,92.9l-2.2,5c0,0.1,0.1,0.1,0.2,0.1l7.7,0c0.1,0,0.3-0.1,0.3-0.1l2.2-5c0-0.1-0.1-0.1-0.2-0.1l-7.7,0
			C253.8,92.8,253.7,92.8,253.6,92.9z"/>
		<path class="st3" d="M251,65.5l-2.1,4.7c0,0.1,0.1,0.1,0.2,0.1l7.2,0c0.1,0,0.3,0,0.3-0.1l2.1-4.7c0-0.1-0.1-0.1-0.2-0.1l-7.2,0
			C251.2,65.4,251.1,65.5,251,65.5z"/>
		<path class="st3" d="M259.3,80.8l-2.2,5c0,0.1,0.1,0.1,0.2,0.1l7.7,0c0.1,0,0.3-0.1,0.3-0.1l2.2-5c0-0.1-0.1-0.1-0.2-0.1l-7.7,0
			C259.4,80.7,259.3,80.8,259.3,80.8z"/>
		<path class="st3" d="M230.2,74.2l-2.2,5c0,0.1,0.1,0.1,0.2,0.1l7.7,0c0.1,0,0.3-0.1,0.3-0.1l2.2-5c0-0.1-0.1-0.1-0.2-0.1l-7.7,0
			C230.4,74.1,230.2,74.1,230.2,74.2z"/>
		<path class="st3" d="M284.2,68.7l-2.2,5c0,0.1,0.1,0.1,0.2,0.1l7.7,0c0.1,0,0.3-0.1,0.3-0.1l2.2-5c0-0.1-0.1-0.1-0.2-0.1l-7.7,0
			C284.4,68.5,284.2,68.6,284.2,68.7z"/>
	</g>
	<g>
		<path class="st4" d="M4,134.2h2.6c0.5,0,0.9,0.1,1.3,0.3c0.4,0.2,0.8,0.4,1.1,0.7c0.3,0.3,0.5,0.7,0.7,1.1s0.3,0.8,0.3,1.3
			c0,0.4-0.1,0.9-0.3,1.3c-0.2,0.4-0.4,0.8-0.7,1.1c-0.3,0.3-0.7,0.6-1.1,0.7c-0.4,0.2-0.8,0.3-1.3,0.3H4V134.2z M5.8,139.5h0.4
			c0.3,0,0.6,0,0.8-0.1c0.2-0.1,0.4-0.2,0.6-0.4s0.3-0.4,0.4-0.6c0.1-0.2,0.1-0.5,0.1-0.8c0-0.3,0-0.5-0.1-0.8
			c-0.1-0.2-0.2-0.4-0.4-0.6s-0.4-0.3-0.6-0.4c-0.2-0.1-0.5-0.1-0.8-0.1H5.8V139.5z"/>
		<path class="st4" d="M13.8,134.2v6.8H12v-6.8H13.8z"/>
		<path class="st4" d="M19.4,137.2h3.5c0,0.4,0,0.7,0,1c0,0.3-0.1,0.6-0.2,0.8c-0.1,0.4-0.3,0.7-0.5,0.9c-0.2,0.3-0.5,0.5-0.8,0.7
			c-0.3,0.2-0.6,0.3-1,0.4c-0.3,0.1-0.7,0.1-1.1,0.1c-0.5,0-1-0.1-1.4-0.3s-0.8-0.4-1.1-0.7c-0.3-0.3-0.6-0.7-0.7-1.1
			c-0.2-0.4-0.3-0.9-0.3-1.5c0-0.5,0.1-1,0.3-1.5s0.4-0.8,0.7-1.1c0.3-0.3,0.7-0.6,1.1-0.7c0.4-0.2,0.9-0.3,1.5-0.3
			c0.7,0,1.3,0.2,1.9,0.5c0.5,0.3,1,0.8,1.3,1.4l-1.7,0.7c-0.2-0.4-0.4-0.6-0.6-0.8s-0.5-0.2-0.9-0.2c-0.3,0-0.5,0-0.7,0.1
			c-0.2,0.1-0.4,0.2-0.6,0.4c-0.2,0.2-0.3,0.4-0.4,0.7s-0.1,0.5-0.1,0.9c0,0.3,0,0.6,0.1,0.8c0.1,0.2,0.2,0.5,0.3,0.6
			c0.1,0.2,0.3,0.3,0.6,0.4c0.2,0.1,0.5,0.1,0.8,0.1c0.2,0,0.3,0,0.5-0.1s0.3-0.1,0.4-0.2c0.1-0.1,0.2-0.2,0.3-0.3s0.1-0.3,0.2-0.5
			h-1.4V137.2z"/>
		<path class="st4" d="M26.7,134.2v6.8h-1.8v-6.8H26.7z"/>
		<path class="st4" d="M31.6,135.7v5.3h-1.8v-5.3h-1.4v-1.5H33v1.5H31.6z"/>
		<path class="st4" d="M38.5,139.8H36l-0.4,1.2h-1.9l2.6-6.8h1.9l2.6,6.8h-1.9L38.5,139.8z M38.1,138.4l-0.8-2.3l-0.8,2.3H38.1z"/>
		<path class="st4" d="M44.3,134.2v5.3h2.1v1.5h-3.9v-6.8H44.3z"/>
		<path class="st4" d="M56.3,139.8h-2.5l-0.4,1.2h-1.9l2.6-6.8H56l2.6,6.8h-1.9L56.3,139.8z M55.8,138.4l-0.8-2.3l-0.8,2.3H55.8z"/>
		<path class="st4" d="M64.9,136.5c-0.4-0.5-0.9-0.7-1.5-0.7c-0.3,0-0.5,0-0.7,0.1s-0.4,0.2-0.6,0.4s-0.3,0.4-0.4,0.6
			c-0.1,0.2-0.1,0.5-0.1,0.7c0,0.3,0,0.5,0.1,0.7c0.1,0.2,0.2,0.4,0.4,0.6s0.4,0.3,0.6,0.4s0.5,0.1,0.7,0.1c0.6,0,1.1-0.2,1.5-0.7
			v2.1l-0.2,0.1c-0.3,0.1-0.5,0.2-0.8,0.2s-0.5,0.1-0.7,0.1c-0.5,0-0.9-0.1-1.3-0.3c-0.4-0.2-0.8-0.4-1.1-0.7
			c-0.3-0.3-0.6-0.7-0.8-1.1c-0.2-0.4-0.3-0.9-0.3-1.4c0-0.5,0.1-1,0.3-1.4c0.2-0.4,0.5-0.8,0.8-1.1c0.3-0.3,0.7-0.6,1.1-0.7
			c0.4-0.2,0.9-0.3,1.4-0.3c0.3,0,0.5,0,0.8,0.1c0.3,0.1,0.5,0.1,0.8,0.3V136.5z"/>
		<path class="st4" d="M71.8,136.5c-0.4-0.5-0.9-0.7-1.5-0.7c-0.3,0-0.5,0-0.7,0.1s-0.4,0.2-0.6,0.4s-0.3,0.4-0.4,0.6
			c-0.1,0.2-0.1,0.5-0.1,0.7c0,0.3,0,0.5,0.1,0.7c0.1,0.2,0.2,0.4,0.4,0.6s0.4,0.3,0.6,0.4s0.5,0.1,0.7,0.1c0.6,0,1.1-0.2,1.5-0.7
			v2.1l-0.2,0.1c-0.3,0.1-0.5,0.2-0.8,0.2s-0.5,0.1-0.7,0.1c-0.5,0-0.9-0.1-1.3-0.3c-0.4-0.2-0.8-0.4-1.1-0.7
			c-0.3-0.3-0.6-0.7-0.8-1.1c-0.2-0.4-0.3-0.9-0.3-1.4c0-0.5,0.1-1,0.3-1.4c0.2-0.4,0.5-0.8,0.8-1.1c0.3-0.3,0.7-0.6,1.1-0.7
			c0.4-0.2,0.9-0.3,1.4-0.3c0.3,0,0.5,0,0.8,0.1c0.3,0.1,0.5,0.1,0.8,0.3V136.5z"/>
		<path class="st4" d="M73.6,137.6c0-0.5,0.1-1,0.3-1.4c0.2-0.4,0.4-0.8,0.8-1.1c0.3-0.3,0.7-0.6,1.2-0.8c0.5-0.2,1-0.3,1.5-0.3
			c0.5,0,1,0.1,1.5,0.3c0.5,0.2,0.9,0.4,1.2,0.8c0.3,0.3,0.6,0.7,0.8,1.1c0.2,0.4,0.3,0.9,0.3,1.4c0,0.5-0.1,1-0.3,1.4
			c-0.2,0.4-0.4,0.8-0.8,1.1c-0.3,0.3-0.7,0.6-1.2,0.8c-0.5,0.2-1,0.3-1.5,0.3c-0.6,0-1.1-0.1-1.5-0.3c-0.5-0.2-0.9-0.4-1.2-0.8
			c-0.3-0.3-0.6-0.7-0.8-1.1C73.7,138.5,73.6,138.1,73.6,137.6z M75.5,137.6c0,0.3,0.1,0.5,0.2,0.7c0.1,0.2,0.2,0.4,0.4,0.6
			s0.4,0.3,0.6,0.4c0.2,0.1,0.5,0.1,0.7,0.1c0.3,0,0.5,0,0.7-0.1c0.2-0.1,0.4-0.2,0.6-0.4s0.3-0.4,0.4-0.6c0.1-0.2,0.2-0.5,0.2-0.7
			c0-0.3-0.1-0.5-0.2-0.7c-0.1-0.2-0.2-0.4-0.4-0.6s-0.4-0.3-0.6-0.4c-0.2-0.1-0.5-0.1-0.7-0.1c-0.3,0-0.5,0-0.7,0.1
			c-0.2,0.1-0.4,0.2-0.6,0.4s-0.3,0.4-0.4,0.6C75.5,137.1,75.5,137.3,75.5,137.6z"/>
		<path class="st4" d="M84.9,134.2v3.7c0,0.2,0,0.4,0,0.6c0,0.2,0.1,0.4,0.1,0.6c0.1,0.2,0.2,0.3,0.4,0.4c0.2,0.1,0.4,0.2,0.7,0.2
			s0.5-0.1,0.7-0.2c0.2-0.1,0.3-0.2,0.4-0.4c0.1-0.2,0.1-0.4,0.1-0.6c0-0.2,0-0.4,0-0.6v-3.7h1.8v3.9c0,1.1-0.2,1.8-0.7,2.3
			s-1.2,0.7-2.2,0.7s-1.7-0.2-2.2-0.7s-0.7-1.3-0.7-2.3v-3.9H84.9z"/>
		<path class="st4" d="M91.4,141v-6.8h1.8l3.3,4.1v-4.1h1.8v6.8h-1.8l-3.3-4.1v4.1H91.4z"/>
		<path class="st4" d="M103.1,135.7v5.3h-1.8v-5.3h-1.4v-1.5h4.7v1.5H103.1z"/>
		<path class="st4" d="M113.9,135.9c-0.2-0.2-0.4-0.3-0.6-0.3s-0.4-0.1-0.6-0.1c-0.2,0-0.4,0.1-0.6,0.2c-0.1,0.1-0.2,0.2-0.2,0.4
			c0,0.1,0,0.2,0.1,0.3c0.1,0.1,0.2,0.1,0.3,0.2c0.1,0.1,0.2,0.1,0.4,0.1s0.3,0.1,0.4,0.1c0.6,0.2,1,0.4,1.3,0.8
			c0.3,0.3,0.4,0.7,0.4,1.3c0,0.3-0.1,0.7-0.2,0.9c-0.1,0.3-0.3,0.5-0.5,0.7s-0.5,0.4-0.8,0.5s-0.7,0.2-1.1,0.2
			c-0.9,0-1.7-0.3-2.4-0.8l0.8-1.4c0.3,0.2,0.5,0.4,0.8,0.5c0.3,0.1,0.5,0.2,0.8,0.2c0.3,0,0.5-0.1,0.6-0.2c0.1-0.1,0.2-0.3,0.2-0.5
			c0-0.1,0-0.2-0.1-0.3c0-0.1-0.1-0.1-0.2-0.2c-0.1-0.1-0.2-0.1-0.3-0.2c-0.1-0.1-0.3-0.1-0.5-0.2c-0.2-0.1-0.5-0.2-0.7-0.2
			c-0.2-0.1-0.4-0.2-0.6-0.3c-0.2-0.1-0.3-0.3-0.4-0.5c-0.1-0.2-0.2-0.5-0.2-0.8s0.1-0.6,0.2-0.9c0.1-0.3,0.3-0.5,0.5-0.7
			s0.4-0.3,0.7-0.5c0.3-0.1,0.6-0.2,1-0.2c0.3,0,0.7,0,1.1,0.1c0.4,0.1,0.7,0.2,1.1,0.4L113.9,135.9z"/>
		<path class="st4" d="M119.5,135.7v5.3h-1.8v-5.3h-1.4v-1.5h4.7v1.5H119.5z"/>
		<path class="st4" d="M128.3,141h-2.2l-1.7-2.6v2.6h-1.8v-6.8h2.7c0.4,0,0.7,0.1,1,0.2c0.3,0.1,0.5,0.3,0.7,0.5s0.3,0.4,0.4,0.7
			c0.1,0.3,0.1,0.5,0.1,0.8c0,0.5-0.1,0.9-0.4,1.3c-0.2,0.3-0.6,0.5-1.1,0.7L128.3,141z M124.4,137.2h0.3c0.3,0,0.6-0.1,0.8-0.2
			c0.2-0.1,0.3-0.4,0.3-0.6c0-0.3-0.1-0.5-0.3-0.6c-0.2-0.1-0.5-0.2-0.8-0.2h-0.3V137.2z"/>
		<path class="st4" d="M131.6,134.2v3.7c0,0.2,0,0.4,0,0.6c0,0.2,0.1,0.4,0.1,0.6c0.1,0.2,0.2,0.3,0.4,0.4c0.2,0.1,0.4,0.2,0.7,0.2
			s0.5-0.1,0.7-0.2c0.2-0.1,0.3-0.2,0.4-0.4c0.1-0.2,0.1-0.4,0.1-0.6c0-0.2,0-0.4,0-0.6v-3.7h1.8v3.9c0,1.1-0.2,1.8-0.7,2.3
			s-1.2,0.7-2.2,0.7s-1.7-0.2-2.2-0.7s-0.7-1.3-0.7-2.3v-3.9H131.6z"/>
		<path class="st4" d="M142.9,136.5c-0.4-0.5-0.9-0.7-1.5-0.7c-0.3,0-0.5,0-0.7,0.1s-0.4,0.2-0.6,0.4s-0.3,0.4-0.4,0.6
			c-0.1,0.2-0.1,0.5-0.1,0.7c0,0.3,0,0.5,0.1,0.7c0.1,0.2,0.2,0.4,0.4,0.6s0.4,0.3,0.6,0.4s0.5,0.1,0.7,0.1c0.6,0,1.1-0.2,1.5-0.7
			v2.1l-0.2,0.1c-0.3,0.1-0.5,0.2-0.8,0.2s-0.5,0.1-0.7,0.1c-0.5,0-0.9-0.1-1.3-0.3c-0.4-0.2-0.8-0.4-1.1-0.7
			c-0.3-0.3-0.6-0.7-0.8-1.1c-0.2-0.4-0.3-0.9-0.3-1.4c0-0.5,0.1-1,0.3-1.4c0.2-0.4,0.5-0.8,0.8-1.1c0.3-0.3,0.7-0.6,1.1-0.7
			c0.4-0.2,0.9-0.3,1.4-0.3c0.3,0,0.5,0,0.8,0.1c0.3,0.1,0.5,0.1,0.8,0.3V136.5z"/>
		<path class="st4" d="M147.5,135.7v5.3h-1.8v-5.3h-1.4v-1.5h4.7v1.5H147.5z"/>
		<path class="st4" d="M152.4,134.2v3.7c0,0.2,0,0.4,0,0.6c0,0.2,0.1,0.4,0.1,0.6c0.1,0.2,0.2,0.3,0.4,0.4c0.2,0.1,0.4,0.2,0.7,0.2
			s0.5-0.1,0.7-0.2c0.2-0.1,0.3-0.2,0.4-0.4s0.1-0.4,0.1-0.6c0-0.2,0-0.4,0-0.6v-3.7h1.8v3.9c0,1.1-0.2,1.8-0.7,2.3
			s-1.2,0.7-2.2,0.7s-1.7-0.2-2.2-0.7c-0.5-0.5-0.7-1.3-0.7-2.3v-3.9H152.4z"/>
		<path class="st4" d="M164.5,141h-2.2l-1.7-2.6v2.6h-1.8v-6.8h2.7c0.4,0,0.7,0.1,1,0.2c0.3,0.1,0.5,0.3,0.7,0.5
			c0.2,0.2,0.3,0.4,0.4,0.7s0.1,0.5,0.1,0.8c0,0.5-0.1,0.9-0.4,1.3s-0.6,0.5-1.1,0.7L164.5,141z M160.7,137.2h0.3
			c0.3,0,0.6-0.1,0.8-0.2c0.2-0.1,0.3-0.4,0.3-0.6c0-0.3-0.1-0.5-0.3-0.6c-0.2-0.1-0.5-0.2-0.8-0.2h-0.3V137.2z"/>
		<path class="st4" d="M167.9,134.2v6.8h-1.8v-6.8H167.9z"/>
		<path class="st4" d="M170.3,141v-6.8h1.8l3.3,4.1v-4.1h1.8v6.8h-1.8l-3.3-4.1v4.1H170.3z"/>
		<path class="st4" d="M182.8,137.2h3.5c0,0.4,0,0.7,0,1s-0.1,0.6-0.2,0.8c-0.1,0.4-0.3,0.7-0.5,0.9c-0.2,0.3-0.5,0.5-0.8,0.7
			c-0.3,0.2-0.6,0.3-1,0.4c-0.3,0.1-0.7,0.1-1.1,0.1c-0.5,0-1-0.1-1.4-0.3c-0.4-0.2-0.8-0.4-1.1-0.7c-0.3-0.3-0.6-0.7-0.7-1.1
			s-0.3-0.9-0.3-1.5c0-0.5,0.1-1,0.3-1.5s0.4-0.8,0.7-1.1c0.3-0.3,0.7-0.6,1.1-0.7c0.4-0.2,0.9-0.3,1.5-0.3c0.7,0,1.3,0.2,1.9,0.5
			c0.5,0.3,1,0.8,1.3,1.4l-1.7,0.7c-0.2-0.4-0.4-0.6-0.6-0.8s-0.5-0.2-0.9-0.2c-0.3,0-0.5,0-0.7,0.1c-0.2,0.1-0.4,0.2-0.6,0.4
			c-0.2,0.2-0.3,0.4-0.4,0.7c-0.1,0.3-0.1,0.5-0.1,0.9c0,0.3,0,0.6,0.1,0.8s0.2,0.5,0.3,0.6c0.1,0.2,0.3,0.3,0.6,0.4
			c0.2,0.1,0.5,0.1,0.8,0.1c0.2,0,0.3,0,0.5-0.1s0.3-0.1,0.4-0.2c0.1-0.1,0.2-0.2,0.3-0.3s0.1-0.3,0.2-0.5h-1.4V137.2z"/>
		<path class="st4" d="M196.4,139.3h-2.9l-0.8,1.6h-1.1l3.4-7.2l3.2,7.2h-1.1L196.4,139.3z M195.9,138.4l-1-2.3l-1.1,2.3H195.9z"/>
		<path class="st4" d="M199.9,141v-7.2l4.9,5.2v-4.7h1v7.2l-4.9-5.2v4.8H199.9z"/>
		<path class="st4" d="M208.4,141v-6.8h1.4c0.7,0,1.2,0.1,1.6,0.2c0.4,0.1,0.8,0.4,1.2,0.7c0.7,0.6,1.1,1.5,1.1,2.5
			c0,1-0.4,1.9-1.1,2.5c-0.4,0.3-0.8,0.5-1.2,0.7c-0.4,0.1-0.9,0.2-1.6,0.2H208.4z M209.5,140h0.5c0.5,0,0.8,0,1.1-0.1
			c0.3-0.1,0.6-0.3,0.8-0.5c0.5-0.5,0.8-1.1,0.8-1.8c0-0.7-0.2-1.3-0.7-1.8c-0.4-0.4-1.1-0.6-2-0.6h-0.5V140z"/>
		<path class="st4" d="M219.1,141l1.2-6.8h1.7l1.4,3.6l1.3-3.6h1.7l1.2,6.8h-1.8l-0.6-3.9l-1.6,3.9H223l-1.5-3.9l-0.6,3.9H219.1z"/>
		<path class="st4" d="M233.8,139.8h-2.5l-0.4,1.2H229l2.6-6.8h1.9l2.6,6.8h-1.9L233.8,139.8z M233.4,138.4l-0.8-2.3l-0.8,2.3H233.4
			z"/>
		<path class="st4" d="M237.8,141v-6.8h1.8l3.3,4.1v-4.1h1.8v6.8h-1.8l-3.3-4.1v4.1H237.8z"/>
		<path class="st4" d="M251.1,139.8h-2.5l-0.4,1.2h-1.9l2.6-6.8h1.9l2.6,6.8h-1.9L251.1,139.8z M250.6,138.4l-0.8-2.3l-0.8,2.3
			H250.6z"/>
		<path class="st4" d="M258.1,137.2h3.5c0,0.4,0,0.7,0,1s-0.1,0.6-0.2,0.8c-0.1,0.4-0.3,0.7-0.5,0.9c-0.2,0.3-0.5,0.5-0.8,0.7
			c-0.3,0.2-0.6,0.3-1,0.4c-0.3,0.1-0.7,0.1-1.1,0.1c-0.5,0-1-0.1-1.4-0.3c-0.4-0.2-0.8-0.4-1.1-0.7c-0.3-0.3-0.6-0.7-0.7-1.1
			s-0.3-0.9-0.3-1.5c0-0.5,0.1-1,0.3-1.5s0.4-0.8,0.7-1.1c0.3-0.3,0.7-0.6,1.1-0.7c0.4-0.2,0.9-0.3,1.5-0.3c0.7,0,1.3,0.2,1.9,0.5
			c0.5,0.3,1,0.8,1.3,1.4l-1.7,0.7c-0.2-0.4-0.4-0.6-0.6-0.8s-0.5-0.2-0.9-0.2c-0.3,0-0.5,0-0.7,0.1c-0.2,0.1-0.4,0.2-0.6,0.4
			c-0.2,0.2-0.3,0.4-0.4,0.7c-0.1,0.3-0.1,0.5-0.1,0.9c0,0.3,0,0.6,0.1,0.8s0.2,0.5,0.3,0.6c0.1,0.2,0.3,0.3,0.6,0.4
			c0.2,0.1,0.5,0.1,0.8,0.1c0.2,0,0.3,0,0.5-0.1s0.3-0.1,0.4-0.2c0.1-0.1,0.2-0.2,0.3-0.3s0.1-0.3,0.2-0.5h-1.4V137.2z"/>
		<path class="st4" d="M267.5,135.7h-2.1v1.1h2v1.5h-2v1.2h2.1v1.5h-3.9v-6.8h3.9V135.7z"/>
		<path class="st4" d="M269.3,141l1.2-6.8h1.7l1.4,3.6l1.3-3.6h1.7l1.2,6.8h-1.8l-0.6-3.9l-1.6,3.9h-0.7l-1.5-3.9l-0.6,3.9H269.3z"
			/>
		<path class="st4" d="M283.7,135.7h-2.1v1.1h2v1.5h-2v1.2h2.1v1.5h-3.9v-6.8h3.9V135.7z"/>
		<path class="st4" d="M285.9,141v-6.8h1.8l3.3,4.1v-4.1h1.8v6.8h-1.8l-3.3-4.1v4.1H285.9z"/>
		<path class="st4" d="M297.6,135.7v5.3h-1.8v-5.3h-1.4v-1.5h4.7v1.5H297.6z"/>
	</g>
</g>
<g id="Layer_3" class="st5">
	<text transform="matrix(1 0 0 1 4.3151 140.9682)" class="st6"><tspan x="0" y="0" class="st1 st7 st8 st9">Digital file Structuring </tspan><tspan x="173.4" y="0" class="st1 st10 st8 st9">and </tspan><tspan x="203.6" y="0" class="st1 st7 st8 st9">management</tspan></text>
	<text transform="matrix(1 0 0 1 6.8284 106.4881)" class="st6"><tspan x="0" y="0" class="st1 st7 st11">Digital Account Structuring </tspan><tspan x="188.6" y="0" class="st1 st10 st11">and </tspan><tspan x="215.8" y="0" class="st1 st7 st11">management</tspan></text>
</g>
</svg>
