<?xml version="1.0" encoding="utf-8"?>
<!-- Generator: Adobe Illustrator 27.5.0, SVG Export Plug-In . SVG Version: 6.00 Build 0)  -->
<svg version="1.1" xmlns="http://www.w3.org/2000/svg" xmlns:xlink="http://www.w3.org/1999/xlink" x="0px" y="0px"
	 viewBox="0 0 358.4 170.3" style="enable-background:new 0 0 358.4 170.3;" xml:space="preserve">
<style type="text/css">
	.st0{fill:#FF8000;}
	.st1{fill:#FFFFFF;}
	.st2{fill:#C53AD8;}
	.st3{font-family:'Futura-CondensedMedium';}
	.st4{font-size:50.1796px;}
	.st5{letter-spacing:5;}
	.st6{fill:#383F68;}
	.st7{font-family:'Futura-Bold';}
	.st8{font-size:50.1526px;}
	.st9{opacity:0.5;fill:#C53AD8;}
</style>
<g id="Layer_1">
	<path class="st0" d="M47.7,159.5L4.8,115.9c-0.6-0.6-0.1-1.6,1.1-2.2l60-35.1c1.2-0.7,2.5-0.8,3.1-0.2l42.8,43.6
		c0.6,0.6,0.1,1.6-1.1,2.2l-60,35.1C49.6,160,48.2,160.1,47.7,159.5z"/>
	<path class="st1" d="M82.2,102.3l-4.5-4.6c-0.1-0.1,0-0.2,0.1-0.2l6.3-3.7c0.1-0.1,0.3-0.1,0.3,0l4.5,4.6c0.1,0.1,0,0.2-0.1,0.2
		l-6.3,3.7C82.4,102.4,82.3,102.4,82.2,102.3z"/>
	<path class="st1" d="M74.3,117.5l-5.2-5.3c-0.1-0.1,0-0.2,0.1-0.3l7.3-4.3c0.1-0.1,0.3-0.1,0.4,0L82,113c0.1,0.1,0,0.2-0.1,0.3
		l-7.3,4.3C74.5,117.6,74.3,117.6,74.3,117.5z"/>
	<text transform="matrix(1 0 0 1 195.377 84.2482)" class="st2 st3 st4 st5">RIGHT</text>
	<g>
		<text transform="matrix(1 0 0 1 147.8395 129.8458)" class="st6 st7 st8">ORDER</text>
	</g>
	<path class="st0" d="M15.5,82.4l-4.4-4.5c-0.1-0.1,0-0.2,0.1-0.2l6.1-3.6c0.1-0.1,0.3-0.1,0.3,0l4.4,4.5c0.1,0.1,0,0.2-0.1,0.2
		l-6.1,3.6C15.7,82.5,15.5,82.5,15.5,82.4z"/>
	<path class="st0" d="M16.7,64.2l-4-4.1c-0.1-0.1,0-0.1,0.1-0.2l5.6-3.3c0.1-0.1,0.2-0.1,0.3,0l4,4.1c0.1,0.1,0,0.1-0.1,0.2L17,64.2
		C16.9,64.2,16.7,64.2,16.7,64.2z"/>
	<path class="st0" d="M12.1,100.7l-4.8-4.9c-0.1-0.1,0-0.2,0.1-0.3l6.7-3.9c0.1-0.1,0.3-0.1,0.3,0l4.8,4.9c0.1,0.1,0,0.2-0.1,0.3
		l-6.7,3.9C12.3,100.8,12.1,100.8,12.1,100.7z"/>
	<path class="st0" d="M45.7,65.8l-4.4-4.5c-0.1-0.1,0-0.2,0.1-0.2l6.1-3.6c0.1-0.1,0.3-0.1,0.3,0l4.4,4.5c0.1,0.1,0,0.2-0.1,0.2
		l-6.1,3.6C45.9,65.8,45.8,65.8,45.7,65.8z"/>
	<path class="st0" d="M38.7,85.1l-4.8-4.9c-0.1-0.1,0-0.2,0.1-0.3l6.7-3.9c0.1-0.1,0.3-0.1,0.3,0l4.8,4.9c0.1,0.1,0,0.2-0.1,0.3
		L39,85.1C38.9,85.2,38.7,85.2,38.7,85.1z"/>
	<path class="st1" d="M46.8,114l-4.8-4.9c-0.1-0.1,0-0.2,0.1-0.3l6.7-3.9c0.1-0.1,0.3-0.1,0.3,0l4.8,4.9c0.1,0.1,0,0.2-0.1,0.3
		l-6.7,3.9C47,114,46.8,114,46.8,114z"/>
	<path class="st1" d="M49.2,95.9l-4.8-4.9c-0.1-0.1,0-0.2,0.1-0.3l6.7-3.9c0.1-0.1,0.3-0.1,0.3,0l4.8,4.9c0.1,0.1,0,0.2-0.1,0.3
		l-6.7,3.9C49.4,96,49.3,96,49.2,95.9z"/>
	<path class="st1" d="M43.3,132.8l-5.2-5.3c-0.1-0.1,0-0.2,0.1-0.3l7.3-4.3c0.1-0.1,0.3-0.1,0.4,0l5.2,5.3c0.1,0.1,0,0.2-0.1,0.3
		l-7.3,4.3C43.6,132.9,43.4,132.9,43.3,132.8z"/>
	<path class="st9" d="M92.4,77.8l-42.6,80.8c-0.6,1-0.1,1.3,1.1,0.7l59.4-34.8c1.1-0.7,2.5-2.1,3.1-3.1l42.6-80.8
		c0.6-1,0.1-1.3-1.1-0.7L95.5,74.7C94.3,75.4,92.9,76.8,92.4,77.8z"/>
</g>
<g id="Layer_2">
</g>
</svg>
