<?xml version="1.0" encoding="utf-8"?>
<!-- Generator: Adobe Illustrator 27.5.0, SVG Export Plug-In . SVG Version: 6.00 Build 0)  -->
<svg version="1.1" xmlns="http://www.w3.org/2000/svg" xmlns:xlink="http://www.w3.org/1999/xlink" x="0px" y="0px"
	 viewBox="0 0 329.8 153.7" style="enable-background:new 0 0 329.8 153.7;" xml:space="preserve">
<style type="text/css">
	.st0{fill:#383F68;}
	.st1{fill:#FF5000;}
	.st2{fill:#FFFFFF;}
	.st3{font-family:'Futura-Bold';}
	.st4{font-size:10px;}
	.st5{letter-spacing:2;}
	.st6{display:none;}
	.st7{display:inline;fill:#383F68;}
	.st8{font-family:'Futura-Medium';}
</style>
<g id="Layer_1">
	<g>
		<g>
			<path class="st0" d="M27.1,96.6c-1-0.8-1.9-1.4-2.9-1.7c-1-0.4-1.9-0.6-2.8-0.6c-1.1,0-2.1,0.3-2.8,0.8c-0.7,0.5-1.1,1.2-1.1,2.1
				c0,0.6,0.2,1.1,0.5,1.5c0.4,0.4,0.8,0.7,1.4,1c0.6,0.3,1.2,0.5,2,0.7c0.7,0.2,1.5,0.4,2.2,0.7c2.9,1,5,2.2,6.3,3.8
				c1.3,1.6,2,3.7,2,6.3c0,1.7-0.3,3.3-0.9,4.7c-0.6,1.4-1.4,2.6-2.6,3.6c-1.1,1-2.5,1.8-4.1,2.3c-1.6,0.6-3.5,0.8-5.5,0.8
				c-4.3,0-8.2-1.3-11.9-3.8l3.8-7.1c1.3,1.2,2.6,2,3.9,2.6c1.3,0.6,2.6,0.9,3.8,0.9c1.4,0,2.5-0.3,3.2-1c0.7-0.7,1.1-1.4,1.1-2.2
				c0-0.5-0.1-0.9-0.3-1.3c-0.2-0.4-0.5-0.7-0.9-1c-0.4-0.3-1-0.6-1.6-0.9c-0.7-0.3-1.5-0.6-2.4-0.9c-1.1-0.4-2.2-0.8-3.3-1.2
				c-1.1-0.4-2.1-1-2.9-1.7c-0.9-0.7-1.5-1.6-2.1-2.7c-0.5-1.1-0.8-2.5-0.8-4.1c0-1.7,0.3-3.2,0.8-4.5c0.6-1.4,1.3-2.5,2.3-3.5
				c1-1,2.2-1.7,3.7-2.3c1.4-0.5,3.1-0.8,4.9-0.8c1.7,0,3.4,0.2,5.2,0.7c1.8,0.5,3.6,1.1,5.2,2L27.1,96.6z"/>
			<path class="st0" d="M36,104.9c0-2.5,0.5-4.8,1.4-7c0.9-2.2,2.2-4.1,3.9-5.7c1.6-1.6,3.6-2.9,5.9-3.8c2.3-0.9,4.8-1.4,7.6-1.4
				c2.7,0,5.2,0.5,7.5,1.4c2.3,0.9,4.3,2.2,5.9,3.8c1.7,1.6,3,3.5,3.9,5.7c0.9,2.2,1.4,4.5,1.4,7c0,2.5-0.5,4.8-1.4,7
				c-0.9,2.2-2.2,4.1-3.9,5.7c-1.7,1.6-3.6,2.9-5.9,3.8c-2.3,0.9-4.8,1.4-7.5,1.4c-2.7,0-5.3-0.5-7.6-1.4c-2.3-0.9-4.3-2.2-5.9-3.8
				c-1.6-1.6-2.9-3.5-3.9-5.7C36.4,109.7,36,107.4,36,104.9z M45.2,104.9c0,1.3,0.3,2.6,0.8,3.7c0.5,1.1,1.2,2.1,2.1,3
				c0.9,0.8,1.9,1.5,3,1.9c1.1,0.5,2.4,0.7,3.7,0.7c1.3,0,2.5-0.2,3.7-0.7c1.1-0.5,2.2-1.1,3-1.9c0.9-0.8,1.6-1.8,2.1-3
				c0.5-1.1,0.8-2.4,0.8-3.7c0-1.3-0.3-2.6-0.8-3.7c-0.5-1.1-1.2-2.1-2.1-3c-0.9-0.8-1.9-1.5-3-1.9c-1.2-0.5-2.4-0.7-3.7-0.7
				c-1.3,0-2.5,0.2-3.7,0.7c-1.2,0.5-2.2,1.1-3,1.9c-0.9,0.8-1.6,1.8-2.1,3C45.4,102.3,45.2,103.5,45.2,104.9z"/>
			<path class="st0" d="M107.1,121.8H96.1l-8.4-13v13H79V88h13.7c1.9,0,3.5,0.3,4.9,0.8c1.4,0.6,2.6,1.3,3.5,2.3
				c0.9,1,1.6,2.1,2.1,3.3c0.5,1.3,0.7,2.6,0.7,4c0,2.6-0.6,4.7-1.9,6.3c-1.2,1.6-3.1,2.7-5.5,3.2L107.1,121.8z M87.7,103.1h1.7
				c1.7,0,3.1-0.4,4-1.1c0.9-0.7,1.4-1.7,1.4-3.1c0-1.3-0.5-2.4-1.4-3.1c-0.9-0.7-2.3-1.1-4-1.1h-1.7V103.1z"/>
			<path class="st0" d="M123.6,95.4v26.4h-8.8V95.4h-7.2V88h23.2v7.4H123.6z"/>
			<path class="st0" d="M154,95.4h-10.4v5.6h9.9v7.4h-9.9v5.8H154v7.4h-19.2V88H154V95.4z"/>
			<path class="st0" d="M160.3,88h13c2.3,0,4.5,0.5,6.5,1.4c2,0.9,3.8,2.2,5.3,3.7c1.5,1.5,2.7,3.3,3.6,5.4c0.9,2,1.3,4.2,1.3,6.4
				c0,2.2-0.4,4.3-1.3,6.4c-0.9,2-2,3.8-3.5,5.4c-1.5,1.6-3.3,2.8-5.3,3.7c-2,0.9-4.2,1.4-6.5,1.4h-13V88z M169.1,114.3h2
				c1.5,0,2.9-0.2,4.1-0.7c1.2-0.5,2.2-1.1,3-2c0.8-0.8,1.4-1.8,1.9-3c0.4-1.1,0.7-2.4,0.7-3.8c0-1.3-0.2-2.6-0.7-3.8
				c-0.4-1.2-1.1-2.2-1.9-3c-0.8-0.8-1.8-1.5-3-2c-1.2-0.5-2.5-0.7-4-0.7h-2V114.3z"/>
		</g>
	</g>
	<g>
		<path class="st1" d="M89.5,57.1c-0.9,0.3-1.9,0.1-2.3,1.2c-1,3.2-1.2,10.8,3.6,8.9l1.2-0.8c3.6-2.3,6.3-5.8,7.7-9.7l0.5-1.5
			c0.1-0.2,0.2-0.5,0.4-0.7c1.2-4.2,2.8-8.9,4.6-13.2c3.1-6.5,9.4-25.1,18-25.5c0.2,0,0.5,0,0.7,0.1c8.9,4.4-4.5,23.9-7.9,29.9
			c0,0,0,0.1,0,0.1c-5.8,8.8-12.8,17.3-11.2,28.3c0.9,9.1,4.6-3,6-5.7c2.9-6.8,5.8-13.7,8.4-20.6c2-5.5,12.1-36.5,20.9-32.9
			c1.3,0.5,2.2,1.8,2.4,3.2c0.1,0.9,0.2,2,0,3.3c-2,11.3-9.9,21-15.9,30.7c0,0-0.1,0.1-0.1,0.1c-3.9,4.3-4,9.8-4.8,15.2
			c-0.1,1.1,0.7,7.4,2.1,5.1c3.3-5.1,5.3-10.9,7.9-16.4c0,0,0-0.1,0-0.1c0.5-1.4,1.1-2.8,1.8-4.2c0.7-1.3,3-0.5,2.5,0.9
			c-3.2,5.5-7.2,23.3-14.1,23.8c-0.2,0-0.4,0-0.5-0.1c-3.5-1-4.8-4-5.4-7.1c-0.3-1.2-2-1.4-2.4-0.2c-1.6,4-2.6,8.9-5.9,11.3
			c-0.7,0.5-1.6,0.7-2.3,0.8c-0.3,0-0.5,0-0.6,0C97.4,81,98,73,98.2,67.2c0-1.1-1.5-1.7-2.2-0.8l-1.7,1.3c-1.6,1.3-3.6,2.1-5.7,2.1
			c-14.4,0.4-6.9-25.5,3.5-29.1c0,0,7.2-2.4,7.9,2.4c0.3,2.2-0.2,4.3-0.9,6.2c-1.3,3.1-4.5,6-7.1,7.1 M122.3,25.7
			c0.5-1.4-1.6-2.3-2.3-1c-3.3,5.7-7.7,17.1-8.1,18.7c0.2,0.9,0.7-0.1,0.8-0.5C116,37.4,120.3,31.9,122.3,25.7z M139.4,20.4
			c-1.4-3.3-10.4,18.2-10.5,20.2c0.3,1,1.5-1.8,1.8-2.1C134,32.7,138.6,27.1,139.4,20.4z M89.5,53.2c0.1,1.1,1.4-0.4,1.9-0.8
			c0.1-0.1,0.2-0.1,0.2-0.2C100.2,41.4,92.4,45,89.5,53.2z"/>
		<path class="st1" d="M29,54.3c1.8,0.3,3.8-0.2,5-1.9c-5.1-0.9-4.3-2.8-2.8-6.9C34,39.4,38.5,34,43.7,29.6c0.3-0.4,0.9-0.1,0.6,0.4
			c-1.1,2.7-2.6,5.3-3.5,8.1c-4.3,11.2-8.3,23.1-7.6,35.2c0.4,6.4,6.5,11,11.4,4.9c3.9-5.6,6.9-11.6,10-17.5
			c0.8-1.7,3.2-7.7,2.6-2.1c-1.2,5.8,0.7,16.7,9.1,12.2c7.2-5.2,9.9-14.2,13.8-21.6c1.2-3.5,13.6-25.8,8.4-30.1
			c-0.5-0.4-1.1-0.5-1.7-0.5c-2.1,0.1-3.8,1.5-4.4,3.4c-1.3,4.2-2.7,8.4-4.2,12.5c-3.6,9.4-7.5,18.7-13,27.3c-2.5,4-5.3,6.9-4.1-0.2
			c0.3-9.1,2-18.1,4.6-26.9c1.5-2.5-0.3-4.6-2.6-2.2c-1.3,1.7-2.1,3.7-2.8,5.7c-4.7,10.1-8.9,20.6-14.8,30.3c-2.3,3.8-5.2,9-4.5,0.8
			c1.2-9.9,4.2-19.4,7.6-28.8c2.4-8.8,16.7-22.3-2.4-18.8c-1.2,0.2-3.3,1-3.3,1C36.6,25.2,29.4,33.8,26.2,41
			c-1.1,2.5-1.7,5.2-1.7,7.9v0C24.5,51.4,26.3,53.8,29,54.3z"/>
	</g>
	<g>
		<path class="st1" d="M281.7,36.6l-8.2,18.2c-0.1,0.2,0.2,0.4,0.8,0.4l28.1,0c0.5,0,1.1-0.2,1.2-0.4l8.2-18.2
			c0.1-0.2-0.2-0.4-0.8-0.4l-28.1,0C282.3,36.2,281.8,36.4,281.7,36.6z"/>
		<path class="st1" d="M235.6,40.7l-20.2,45.1c-0.3,0.6,0.6,1.1,1.9,1.1l69.5-0.1c1.3,0,2.6-0.5,2.9-1.1L310,40.6
			c0.3-0.6-0.6-1.1-1.9-1.1l-69.5,0.1C237.2,39.7,235.9,40.1,235.6,40.7z"/>
		<path class="st2" d="M275.6,59l-1.9,4.3c0,0.1,0.1,0.1,0.2,0.1l6.6,0c0.1,0,0.3,0,0.3-0.1l1.9-4.3c0-0.1-0.1-0.1-0.2-0.1l-6.6,0
			C275.7,58.9,275.6,59,275.6,59z"/>
		<path class="st1" d="M237.4,103.5l-2.4,5.4c0,0.1,0.1,0.1,0.2,0.1l8.3,0c0.2,0,0.3-0.1,0.3-0.1l2.4-5.4c0-0.1-0.1-0.1-0.2-0.1
			l-8.3,0C237.6,103.4,237.4,103.5,237.4,103.5z"/>
		<path class="st1" d="M247.1,113.5l-2.7,6.1c0,0.1,0.1,0.1,0.3,0.1l9.4,0c0.2,0,0.4-0.1,0.4-0.1l2.7-6.1c0-0.1-0.1-0.1-0.3-0.1
			l-9.4,0C247.3,113.3,247.1,113.4,247.1,113.5z"/>
		<path class="st1" d="M227.8,93.9l-2.2,5c0,0.1,0.1,0.1,0.2,0.1l7.7,0c0.1,0,0.3-0.1,0.3-0.1l2.2-5c0-0.1-0.1-0.1-0.2-0.1l-7.7,0
			C228,93.8,227.8,93.8,227.8,93.9z"/>
		<path class="st1" d="M273.9,99.3l-2.4,5.4c0,0.1,0.1,0.1,0.2,0.1l8.3,0c0.2,0,0.3-0.1,0.3-0.1l2.4-5.4c0-0.1-0.1-0.1-0.2-0.1
			l-8.3,0C274.1,99.2,274,99.2,273.9,99.3z"/>
		<path class="st1" d="M258.6,93.9l-2.2,5c0,0.1,0.1,0.1,0.2,0.1l7.7,0c0.1,0,0.3-0.1,0.3-0.1l2.2-5c0-0.1-0.1-0.1-0.2-0.1l-7.7,0
			C258.8,93.8,258.7,93.8,258.6,93.9z"/>
		<path class="st2" d="M256,66.5l-2.1,4.7c0,0.1,0.1,0.1,0.2,0.1l7.2,0c0.1,0,0.3,0,0.3-0.1l2.1-4.7c0-0.1-0.1-0.1-0.2-0.1l-7.2,0
			C256.2,66.4,256.1,66.5,256,66.5z"/>
		<path class="st2" d="M264.3,81.8l-2.2,5c0,0.1,0.1,0.1,0.2,0.1l7.7,0c0.1,0,0.3-0.1,0.3-0.1l2.2-5c0-0.1-0.1-0.1-0.2-0.1l-7.7,0
			C264.4,81.7,264.3,81.8,264.3,81.8z"/>
		<path class="st2" d="M235.2,75.2l-2.2,5c0,0.1,0.1,0.1,0.2,0.1l7.7,0c0.1,0,0.3-0.1,0.3-0.1l2.2-5c0-0.1-0.1-0.1-0.2-0.1l-7.7,0
			C235.4,75.1,235.2,75.1,235.2,75.2z"/>
		<path class="st2" d="M289.2,69.7l-2.2,5c0,0.1,0.1,0.1,0.2,0.1l7.7,0c0.1,0,0.3-0.1,0.3-0.1l2.2-5c0-0.1-0.1-0.1-0.2-0.1l-7.7,0
			C289.4,69.5,289.2,69.6,289.2,69.7z"/>
	</g>
	<text transform="matrix(1 0 0 1 9.3151 141.9682)" class="st1 st3 st4 st5">Digital structure simplified</text>
</g>
<g id="Layer_3" class="st6">
	<text transform="matrix(1 0 0 1 9.3151 141.9682)" class="st7 st8 st4">Digital structure organization</text>
</g>
</svg>
