<?xml version="1.0" encoding="utf-8"?>
<!-- Generator: Adobe Illustrator 27.5.0, SVG Export Plug-In . SVG Version: 6.00 Build 0)  -->
<svg version="1.1" id="Layer_1" xmlns="http://www.w3.org/2000/svg" xmlns:xlink="http://www.w3.org/1999/xlink" x="0px" y="0px"
	 viewBox="0 0 41 40" style="enable-background:new 0 0 41 40;" xml:space="preserve">
<style type="text/css">
	.st0{fill:#3D3A44;}
	.st1{fill:none;stroke:#FFFFFF;stroke-width:0.5;stroke-miterlimit:10;}
	.st2{fill:none;stroke:#3D3A44;stroke-width:1.5;stroke-linecap:round;stroke-miterlimit:10;}
</style>
<path class="st0" d="M38.5,1.5C38.4,1,38,0.7,37.5,0.7h-4.6c-0.6,0-1.1,0.5-1.1,1.1c0,0.6,0.5,1.1,1.1,1.1l1.7,0.3l-4.1,5.3
	c-0.3,0.4-0.6,0.8-1,1.2C22.3,17.5,13.8,22.1,3,21.1c-0.6-0.1-1.2,0.4-1.2,1c-0.1,0.6,0.4,1.2,1,1.2c1.1,0.1,2,0.1,3,0.1
	c9.7,0,17.4-4.2,24.1-11c1.1-1.1,2.1-2.3,3.1-3.6l3.2-4.2l0.1,1.5c0,0.6,0.5,1.1,1.1,1.1c0.6,0,1.1-0.5,1.1-1.1V2.9L38.5,1.5z"/>
<path class="st0" d="M39.9,36.3h-1.3V10.9c0-0.5-0.3-0.9-0.8-1.1c-0.5-0.2-1,0-1.3,0.3l-1.6,1.8c-0.8,0.9-2.3,2.1-3.2,2.9
	c-0.1,0.1-0.2,0.2-0.2,0.3c-0.1,0.1-0.1,0.3-0.1,0.5v20.7h-2.4V19.2c0-0.2-0.1-0.4-0.2-0.6c-0.1-0.2-0.3-0.3-0.5-0.4
	C27.9,18,27.4,18,27,18.3c-1.5,0.9-3.1,1.8-4.7,2.6c-0.2,0.1-0.4,0.2-0.5,0.4s-0.2,0.4-0.2,0.6v14.5h-2.4V23.8c0-0.2,0-0.4-0.1-0.5
	c-0.1-0.2-0.2-0.3-0.4-0.4c-0.3-0.2-0.7-0.3-1.1-0.1c-1.5,0.5-3.1,0.9-4.7,1.3c-0.3,0.1-0.5,0.2-0.7,0.4c-0.2,0.2-0.3,0.4-0.3,0.7
	v11.2H9.6V25.9c0-0.2,0-0.3-0.1-0.5c-0.1-0.1-0.2-0.3-0.3-0.4c-0.3-0.2-0.6-0.3-0.9-0.3C6.7,24.9,5.2,25,3.6,25
	c-0.7,0-1.2,0.5-1.2,1.1v10.2H1.1"/>
<path class="st1" d="M39.9,36.1"/>
<path class="st1" d="M0.4,36.1"/>
<line class="st2" x1="3.1" y1="38.8" x2="37.9" y2="38.8"/>
</svg>
