<?xml version="1.0" encoding="utf-8"?>
<!-- Generator: Adobe Illustrator 27.5.0, SVG Export Plug-In . SVG Version: 6.00 Build 0)  -->
<svg version="1.1" id="Layer_1" xmlns="http://www.w3.org/2000/svg" xmlns:xlink="http://www.w3.org/1999/xlink" x="0px" y="0px"
	 viewBox="0 0 217.8 60.8" style="enable-background:new 0 0 217.8 60.8;" xml:space="preserve">
<style type="text/css">
	.st0{fill:#383F68;}
</style>
<g>
	<g>
		<path class="st0" d="M41.2,42.3h-14l-2.3,6.6H14.5l14.4-37.8h10.7L54,48.9H43.5L41.2,42.3z M38.6,34.9l-4.4-12.6l-4.4,12.6H38.6z"
			/>
		<path class="st0" d="M58.3,11.1h14.6c3.5,0,6.1,0.8,7.9,2.5c1.8,1.7,2.7,4.1,2.7,7.2c0,1.9-0.3,3.5-1,4.7
			c-0.7,1.3-1.7,2.3-3.1,3.2C80.8,29,82,29.4,83,30s1.8,1.2,2.4,2c0.6,0.8,1.1,1.7,1.3,2.7c0.3,1,0.4,2.1,0.4,3.2
			c0,1.8-0.3,3.3-0.9,4.7c-0.6,1.4-1.5,2.5-2.6,3.5c-1.1,0.9-2.5,1.6-4.1,2.1c-1.6,0.5-3.4,0.7-5.4,0.7H58.3V11.1z M68.1,25.9h1.8
			c3.1,0,4.6-1.2,4.6-3.7c0-2.4-1.5-3.7-4.6-3.7h-1.8V25.9z M68.1,41.3h2.2c2.5,0,4.2-0.3,5.3-1c1.1-0.6,1.6-1.7,1.6-3.1
			c0-1.4-0.5-2.4-1.6-3.1c-1.1-0.6-2.8-1-5.3-1h-2.2V41.3z"/>
		<path class="st0" d="M91,30c0-2.8,0.5-5.4,1.6-7.8c1-2.4,2.5-4.5,4.3-6.3c1.8-1.8,4-3.2,6.6-4.2c2.6-1,5.4-1.5,8.5-1.5
			c3,0,5.9,0.5,8.4,1.5c2.6,1,4.8,2.4,6.6,4.2c1.9,1.8,3.3,3.9,4.3,6.3c1,2.4,1.6,5,1.6,7.8s-0.5,5.4-1.6,7.8s-2.5,4.5-4.3,6.3
			c-1.9,1.8-4.1,3.2-6.6,4.2S115,50,111.9,50c-3.1,0-5.9-0.5-8.5-1.5s-4.8-2.4-6.6-4.2c-1.8-1.8-3.3-3.9-4.3-6.3
			C91.5,35.4,91,32.8,91,30z M101.3,30c0,1.5,0.3,2.9,0.9,4.2c0.6,1.3,1.3,2.4,2.3,3.3c1,0.9,2.1,1.7,3.4,2.2
			c1.3,0.5,2.6,0.8,4.1,0.8c1.4,0,2.8-0.3,4.1-0.8c1.3-0.5,2.4-1.2,3.4-2.2c1-0.9,1.8-2,2.3-3.3c0.6-1.3,0.9-2.7,0.9-4.2
			c0-1.5-0.3-2.9-0.9-4.2c-0.6-1.3-1.3-2.4-2.3-3.3c-1-0.9-2.1-1.7-3.4-2.2c-1.3-0.5-2.7-0.8-4.1-0.8c-1.4,0-2.8,0.3-4.1,0.8
			c-1.3,0.5-2.4,1.2-3.4,2.2c-1,0.9-1.7,2-2.3,3.3C101.6,27.1,101.3,28.5,101.3,30z"/>
		<path class="st0" d="M148.9,11.1v20.6c0,1.1,0,2.2,0.1,3.4s0.3,2.2,0.8,3.1c0.4,0.9,1.1,1.7,2,2.3c0.9,0.6,2.2,0.9,3.8,0.9
			c1.6,0,2.9-0.3,3.8-0.9c0.9-0.6,1.5-1.3,2-2.3c0.4-0.9,0.7-2,0.8-3.1s0.1-2.3,0.1-3.4V11.1h9.8V33c0,5.9-1.3,10.2-4,12.9
			c-2.7,2.7-6.8,4.1-12.4,4.1s-9.7-1.4-12.4-4.1c-2.7-2.7-4.1-7-4.1-12.9V11.1H148.9z"/>
		<path class="st0" d="M194.3,19.4v29.5h-9.8V19.4h-8.1v-8.3h26v8.3H194.3z"/>
	</g>
</g>
</svg>
