<?xml version="1.0" encoding="utf-8"?>
<!-- Generator: Adobe Illustrator 27.5.0, SVG Export Plug-In . SVG Version: 6.00 Build 0)  -->
<svg version="1.1" id="Layer_1" xmlns="http://www.w3.org/2000/svg" xmlns:xlink="http://www.w3.org/1999/xlink" x="0px" y="0px"
	 viewBox="0 0 265.3 60.8" style="enable-background:new 0 0 265.3 60.8;" xml:space="preserve">
<style type="text/css">
	.st0{fill:#383F68;}
</style>
<g>
	<g>
		<path class="st0" d="M34.8,20.8c-1.1-0.9-2.1-1.5-3.2-1.9c-1.1-0.4-2.1-0.6-3.1-0.6c-1.3,0-2.3,0.3-3.1,0.9
			c-0.8,0.6-1.2,1.4-1.2,2.4c0,0.7,0.2,1.2,0.6,1.7c0.4,0.4,0.9,0.8,1.6,1.1c0.7,0.3,1.4,0.6,2.2,0.8c0.8,0.2,1.6,0.5,2.4,0.8
			c3.2,1.1,5.6,2.5,7,4.3c1.5,1.8,2.2,4.1,2.2,7c0,1.9-0.3,3.7-1,5.3s-1.6,2.9-2.9,4s-2.8,2-4.6,2.6C30,49.7,28,50,25.7,50
			c-4.8,0-9.2-1.4-13.3-4.3l4.2-7.9c1.5,1.3,2.9,2.3,4.4,2.9c1.4,0.6,2.9,1,4.3,1c1.6,0,2.8-0.4,3.6-1.1C29.6,39.8,30,39,30,38
			c0-0.6-0.1-1.1-0.3-1.5c-0.2-0.4-0.5-0.8-1-1.2c-0.5-0.4-1.1-0.7-1.8-1c-0.8-0.3-1.7-0.6-2.7-1c-1.3-0.4-2.5-0.8-3.7-1.3
			c-1.2-0.5-2.3-1.1-3.3-1.9c-1-0.8-1.7-1.8-2.3-3c-0.6-1.2-0.9-2.8-0.9-4.6c0-1.9,0.3-3.6,0.9-5.1c0.6-1.5,1.5-2.8,2.6-3.9
			c1.1-1.1,2.5-1.9,4.1-2.5C23.2,10.3,25,10,27,10c1.9,0,3.8,0.3,5.9,0.8c2,0.5,4,1.3,5.9,2.3L34.8,20.8z"/>
		<path class="st0" d="M68,19.4H56.3v6.3h11v8.3h-11v6.5H68v8.3H46.5V11.1H68V19.4z"/>
		<path class="st0" d="M106.5,48.9H94.3l-9.4-14.5v14.5h-9.8V11.1h15.3c2.1,0,3.9,0.3,5.5,0.9c1.6,0.6,2.9,1.5,3.9,2.5
			c1,1.1,1.8,2.3,2.3,3.7c0.5,1.4,0.8,2.9,0.8,4.5c0,2.9-0.7,5.2-2.1,7c-1.4,1.8-3.4,3-6.1,3.6L106.5,48.9z M84.9,28h1.9
			c1.9,0,3.4-0.4,4.5-1.2c1-0.8,1.6-2,1.6-3.5c0-1.5-0.5-2.7-1.6-3.5c-1-0.8-2.5-1.2-4.5-1.2h-1.9V28z"/>
		<path class="st0" d="M115.9,11.1l9.1,23l9.2-23h10.7l-15.9,37.8h-7.8l-15.9-37.8H115.9z"/>
		<path class="st0" d="M158.7,11.1v37.8h-9.8V11.1H158.7z"/>
		<path class="st0" d="M193.8,23.7c-2.3-2.8-5.1-4.2-8.4-4.2c-1.5,0-2.8,0.3-4.1,0.8c-1.3,0.5-2.3,1.3-3.2,2.2
			c-0.9,0.9-1.6,2-2.1,3.3c-0.5,1.3-0.8,2.6-0.8,4.1c0,1.5,0.3,2.9,0.8,4.2c0.5,1.3,1.2,2.4,2.2,3.3c0.9,0.9,2,1.7,3.2,2.2
			c1.2,0.5,2.6,0.8,4,0.8c3.1,0,6-1.3,8.5-4v11.6l-1,0.4c-1.5,0.5-2.9,0.9-4.2,1.2c-1.3,0.3-2.6,0.4-3.9,0.4c-2.6,0-5.1-0.5-7.5-1.5
			c-2.4-1-4.5-2.4-6.3-4.2c-1.8-1.8-3.3-3.9-4.4-6.4c-1.1-2.5-1.7-5.1-1.7-8s0.5-5.6,1.6-8c1.1-2.4,2.5-4.5,4.4-6.3s3.9-3.1,6.3-4.1
			c2.4-1,4.9-1.5,7.6-1.5c1.5,0,3,0.2,4.4,0.5c1.5,0.3,3,0.8,4.6,1.5V23.7z"/>
		<path class="st0" d="M221.6,19.4h-11.7v6.3h11v8.3h-11v6.5h11.7v8.3H200V11.1h21.5V19.4z"/>
		<path class="st0" d="M249.4,20.8c-1.1-0.9-2.1-1.5-3.2-1.9c-1.1-0.4-2.1-0.6-3.1-0.6c-1.3,0-2.3,0.3-3.1,0.9
			c-0.8,0.6-1.2,1.4-1.2,2.4c0,0.7,0.2,1.2,0.6,1.7c0.4,0.4,0.9,0.8,1.6,1.1c0.7,0.3,1.4,0.6,2.2,0.8c0.8,0.2,1.6,0.5,2.4,0.8
			c3.2,1.1,5.6,2.5,7,4.3c1.5,1.8,2.2,4.1,2.2,7c0,1.9-0.3,3.7-1,5.3s-1.6,2.9-2.9,4s-2.8,2-4.6,2.6c-1.8,0.6-3.9,0.9-6.2,0.9
			c-4.8,0-9.2-1.4-13.3-4.3l4.2-7.9c1.5,1.3,2.9,2.3,4.4,2.9c1.4,0.6,2.9,1,4.3,1c1.6,0,2.8-0.4,3.6-1.1c0.8-0.7,1.2-1.6,1.2-2.5
			c0-0.6-0.1-1.1-0.3-1.5c-0.2-0.4-0.5-0.8-1-1.2c-0.5-0.4-1.1-0.7-1.8-1c-0.8-0.3-1.7-0.6-2.7-1c-1.3-0.4-2.5-0.8-3.7-1.3
			c-1.2-0.5-2.3-1.1-3.3-1.9c-1-0.8-1.7-1.8-2.3-3c-0.6-1.2-0.9-2.8-0.9-4.6c0-1.9,0.3-3.6,0.9-5.1c0.6-1.5,1.5-2.8,2.6-3.9
			c1.1-1.1,2.5-1.9,4.1-2.5c1.6-0.6,3.4-0.9,5.4-0.9c1.9,0,3.8,0.3,5.9,0.8c2,0.5,4,1.3,5.9,2.3L249.4,20.8z"/>
	</g>
</g>
</svg>
