<?xml version="1.0" encoding="utf-8"?>
<!-- Generator: Adobe Illustrator 27.5.0, SVG Export Plug-In . SVG Version: 6.00 Build 0)  -->
<svg version="1.1" id="Layer_1" xmlns="http://www.w3.org/2000/svg" xmlns:xlink="http://www.w3.org/1999/xlink" x="0px" y="0px"
	 viewBox="0 0 265.3 60.8" style="enable-background:new 0 0 265.3 60.8;" xml:space="preserve">
<style type="text/css">
	.st0{fill:#383F68;}
</style>
<g>
	<g>
		<path class="st0" d="M38.3,22.7c-2.3-2.8-5.1-4.2-8.4-4.2c-1.5,0-2.8,0.3-4.1,0.8c-1.3,0.5-2.3,1.3-3.2,2.2
			c-0.9,0.9-1.6,2-2.1,3.3c-0.5,1.3-0.8,2.6-0.8,4.1c0,1.5,0.3,2.9,0.8,4.2c0.5,1.3,1.2,2.4,2.2,3.3c0.9,0.9,2,1.7,3.2,2.2
			c1.2,0.5,2.6,0.8,4,0.8c3.1,0,6-1.3,8.5-4v11.6l-1,0.4c-1.5,0.5-2.9,0.9-4.2,1.2c-1.3,0.3-2.6,0.4-3.9,0.4c-2.6,0-5.1-0.5-7.5-1.5
			c-2.4-1-4.5-2.4-6.3-4.2c-1.8-1.8-3.3-3.9-4.4-6.4s-1.7-5.1-1.7-8s0.5-5.6,1.6-8c1.1-2.4,2.5-4.5,4.4-6.3s3.9-3.1,6.3-4.1
			c2.4-1,4.9-1.5,7.6-1.5c1.5,0,3,0.2,4.4,0.5c1.5,0.3,3,0.8,4.6,1.5V22.7z"/>
		<path class="st0" d="M43.4,29c0-2.8,0.5-5.4,1.6-7.8c1-2.4,2.5-4.5,4.3-6.3c1.8-1.8,4-3.2,6.6-4.2c2.6-1,5.4-1.5,8.5-1.5
			c3,0,5.9,0.5,8.4,1.5c2.6,1,4.8,2.4,6.6,4.2c1.9,1.8,3.3,3.9,4.3,6.3c1,2.4,1.6,5,1.6,7.8s-0.5,5.4-1.6,7.8s-2.5,4.5-4.3,6.3
			c-1.9,1.8-4.1,3.2-6.6,4.2S67.3,49,64.3,49c-3.1,0-5.9-0.5-8.5-1.5s-4.8-2.4-6.6-4.2c-1.8-1.8-3.3-3.9-4.3-6.3
			C43.9,34.4,43.4,31.8,43.4,29z M53.7,29c0,1.5,0.3,2.9,0.9,4.2c0.6,1.3,1.3,2.4,2.3,3.3c1,0.9,2.1,1.7,3.4,2.2
			c1.3,0.5,2.6,0.8,4.1,0.8c1.4,0,2.8-0.3,4.1-0.8c1.3-0.5,2.4-1.2,3.4-2.2s1.8-2,2.3-3.3c0.6-1.3,0.9-2.7,0.9-4.2
			c0-1.5-0.3-2.9-0.9-4.2c-0.6-1.3-1.3-2.4-2.3-3.3c-1-0.9-2.1-1.7-3.4-2.2c-1.3-0.5-2.7-0.8-4.1-0.8c-1.4,0-2.8,0.3-4.1,0.8
			c-1.3,0.5-2.4,1.2-3.4,2.2c-1,0.9-1.7,2-2.3,3.3C53.9,26.1,53.7,27.5,53.7,29z"/>
		<path class="st0" d="M91.5,47.9V10.1h9.8l18.2,23.1V10.1h9.8v37.8h-9.8l-18.2-23.1v23.1H91.5z"/>
		<path class="st0" d="M151.5,18.4v29.5h-9.8V18.4h-8.1v-8.3h26v8.3H151.5z"/>
		<path class="st0" d="M185.4,41.3h-14l-2.3,6.6h-10.5L173,10.1h10.7l14.4,37.8h-10.5L185.4,41.3z M182.7,33.9l-4.4-12.6l-4.4,12.6
			H182.7z"/>
		<path class="st0" d="M228.2,22.7c-2.3-2.8-5.1-4.2-8.4-4.2c-1.5,0-2.8,0.3-4.1,0.8c-1.3,0.5-2.3,1.3-3.2,2.2
			c-0.9,0.9-1.6,2-2.1,3.3c-0.5,1.3-0.8,2.6-0.8,4.1c0,1.5,0.3,2.9,0.8,4.2c0.5,1.3,1.2,2.4,2.2,3.3c0.9,0.9,2,1.7,3.2,2.2
			c1.2,0.5,2.6,0.8,4,0.8c3.1,0,6-1.3,8.5-4v11.6l-1,0.4c-1.5,0.5-2.9,0.9-4.2,1.2c-1.3,0.3-2.6,0.4-3.9,0.4c-2.6,0-5.1-0.5-7.5-1.5
			c-2.4-1-4.5-2.4-6.3-4.2c-1.8-1.8-3.3-3.9-4.4-6.4s-1.7-5.1-1.7-8s0.5-5.6,1.6-8c1.1-2.4,2.5-4.5,4.4-6.3s3.9-3.1,6.3-4.1
			c2.4-1,4.9-1.5,7.6-1.5c1.5,0,3,0.2,4.4,0.5c1.5,0.3,3,0.8,4.6,1.5V22.7z"/>
		<path class="st0" d="M248.8,18.4v29.5H239V18.4h-8.1v-8.3h26v8.3H248.8z"/>
	</g>
</g>
</svg>
